<svg width="657" height="158" viewBox="0 0 657 158" fill="none" xmlns="http://www.w3.org/2000/svg">
<path d="M116.183 59.4983C104.059 60.3066 90.9239 76.0011 85.872 83.7474C89.4083 90.3149 102.038 105.976 117.194 107.491C129.318 108.704 142.117 92.1672 147 83.7474C141.78 75.3276 128.308 58.69 116.183 59.4983Z" fill="#ffff" stroke="#ffff"/>
<path d="M31.3114 59.5267C19.1869 60.335 6.0519 76.0296 1 83.7758C4.53633 90.3433 17.1661 106.004 32.3218 107.52C44.4464 108.732 57.2445 92.1956 62.128 83.7758C56.9077 75.356 43.436 58.7184 31.3114 59.5267Z" fill="#ffff" stroke="#ffff"/>
<path d="M50.5371 41.8166C51.3454 53.9412 67.04 67.0761 74.7862 72.128C81.3537 68.5917 97.0146 55.9619 98.5301 40.8062C99.7426 28.6817 83.206 15.8835 74.7862 11C66.3664 16.2203 49.7288 29.692 50.5371 41.8166Z" fill="#ffff" stroke="#ffff"/>
<path d="M50.5371 126.689C51.3454 138.813 67.04 151.948 74.7862 157C81.3537 153.464 97.0146 140.834 98.5301 125.678C99.7426 113.554 83.206 100.755 74.7862 95.872C66.3664 101.092 49.7288 114.564 50.5371 126.689Z" fill="#ffff" stroke="#ffff"/>
<path d="M223.9 132.4C230.4 132.4 235.6 129.65 239.5 124.15C243.4 118.65 245.35 111.2 245.35 101.8V54.4C244.45 52.4 241.3 51.4 235.9 51.4V48.25H259.9V51.4C254.5 51.4 251.35 52.4 250.45 54.4V98.8C250.45 111.8 247.55 121.5 241.75 127.9C236.05 134.3 228.85 137.5 220.15 137.5C196.15 137.5 184.15 124.6 184.15 98.8V54.4C183.25 52.4 180.1 51.4 174.7 51.4V48.25H212.65V51.4C207.25 51.4 204.1 52.4 203.2 54.4V100.9C203.2 111.1 204.95 118.9 208.45 124.3C211.95 129.7 217.1 132.4 223.9 132.4ZM267.927 136V132.85C273.327 132.85 276.477 131.85 277.377 129.85V54.4C276.477 52.4 273.327 51.4 267.927 51.4V48.25H329.877V62.8H326.727C326.727 57.4 325.727 54.25 323.727 53.35H296.427V87.85H313.677C315.677 86.95 316.677 83.8 316.677 78.4H319.827V102.4H316.677C316.677 97 315.677 93.85 313.677 92.95H296.427V130.9H326.877C329.377 129.8 331.627 126.65 333.627 121.45H336.627L333.027 136H267.927ZM343.367 136V132.85C348.767 132.85 351.917 131.85 352.817 129.85V54.4C351.917 52.4 348.767 51.4 343.367 51.4V48.25H370.517L402.467 118L434.417 48.25H461.867V51.4C456.467 51.4 453.317 52.4 452.417 54.4V129.85C453.317 131.85 456.467 132.85 461.867 132.85V136H423.917V132.85C429.317 132.85 432.467 131.85 433.367 129.85V62.5L399.767 136H392.267L357.917 61.6V129.85C358.817 131.85 361.967 132.85 367.367 132.85V136H343.367ZM472.713 136V132.85C478.113 132.85 481.263 131.85 482.163 129.85V54.4C481.263 52.4 478.113 51.4 472.713 51.4V48.25H510.363V51.4C504.963 51.4 501.813 52.4 500.913 54.4V129.85C501.813 131.85 504.963 132.85 510.363 132.85V136H472.713ZM530.313 136V132.85C532.713 132.85 534.563 132.7 535.863 132.4L501.663 88.9L538.413 52.45C537.013 51.75 534.463 51.4 530.763 51.4V48.25H554.313V51.4C553.413 51.4 552.613 51.45 551.913 51.55C551.213 51.55 550.563 51.65 549.962 51.85C549.363 52.05 548.863 52.2 548.463 52.3C548.063 52.4 547.663 52.6 547.263 52.9C546.863 53.2 546.563 53.4 546.363 53.5C546.263 53.6 546.013 53.85 545.613 54.25L545.013 54.85L517.713 81.7L555.363 130.45C556.663 132.05 559.813 132.85 564.813 132.85V136H530.313ZM610.705 136V132.85C615.305 132.85 618.205 132.25 619.405 131.05L611.005 108.1H582.205L574.405 130.15C575.405 131.95 578.505 132.85 583.705 132.85V136H559.105V132.85C564.605 132.85 567.755 131.8 568.555 129.7L597.655 48.25H609.805L639.205 129.7C639.905 131.8 643.105 132.85 648.805 132.85V136H610.705ZM596.455 68.2L584.005 103.15H609.205L596.455 68.2Z" fill="#ffff"/>
</svg>
