<svg width="148" height="148" viewBox="0 0 148 148" fill="none" xmlns="http://www.w3.org/2000/svg">
<path d="M116.183 49.4983C104.059 50.3066 90.9239 66.0012 85.872 73.7474C89.4083 80.3149 102.038 95.9758 117.194 97.4913C129.318 98.7038 142.116 82.1672 147 73.7474C141.78 65.3276 128.308 48.69 116.183 49.4983Z" fill="#ffff" stroke="#ffff"/>
<path d="M31.3114 49.5267C19.1869 50.335 6.0519 66.0296 1 73.7758C4.53633 80.3433 17.1661 96.0042 32.3218 97.5198C44.4464 98.7322 57.2445 82.1957 62.128 73.7758C56.9077 65.356 43.436 48.7184 31.3114 49.5267Z" fill="#ffff" stroke="#ffff"/>
<path d="M50.5371 31.8166C51.3454 43.9412 67.04 57.0761 74.7862 62.128C81.3537 58.5917 97.0146 45.9619 98.5301 30.8062C99.7426 18.6817 83.206 5.88351 74.7862 1C66.3664 6.2203 49.7288 19.692 50.5371 31.8166Z" fill="#ffff" stroke="#ffff"/>
<path d="M50.5371 116.689C51.3454 128.813 67.04 141.948 74.7862 147C81.3537 143.464 97.0146 130.834 98.5301 115.678C99.7426 103.554 83.206 90.7555 74.7862 85.872C66.3664 91.0923 49.7288 104.564 50.5371 116.689Z" fill="#ffff" stroke="#ffff"/>
</svg>
